<svg width="243" height="19" viewBox="0 0 243 19" fill="none" xmlns="http://www.w3.org/2000/svg">
<path d="M0.68 18V0.839999H19.016V3.96H4.52V8.712H17.144V11.832H4.52V18H0.68ZM21.6566 18V0.839999H36.0326C37.8086 0.839999 39.1846 1.288 40.1606 2.184C41.1526 3.08 41.6486 4.44 41.6486 6.264C41.6486 7.816 41.2886 9.032 40.5686 9.912C39.8486 10.792 38.8246 11.344 37.4966 11.568L41.4566 18H37.0886L33.4166 11.688H25.4966V18H21.6566ZM35.5766 3.96H25.4966V8.544L35.5766 8.568C36.2806 8.568 36.8166 8.392 37.1846 8.04C37.5686 7.688 37.7606 7.096 37.7606 6.264C37.7606 5.416 37.5686 4.824 37.1846 4.488C36.8166 4.136 36.2806 3.96 35.5766 3.96ZM44.5316 18V0.839999H63.3476V3.96H48.3716V7.752H61.9556V10.872H48.3716V14.88H63.3476V18H44.5316ZM65.4249 18.12V15L79.2249 15.024C79.9289 15.024 80.4649 14.864 80.8329 14.544C81.2169 14.208 81.4089 13.672 81.4089 12.936C81.4089 12.2 81.2169 11.672 80.8329 11.352C80.4649 11.016 79.9289 10.848 79.2249 10.848H70.6329C68.8569 10.848 67.4729 10.424 66.4809 9.576C65.5049 8.712 65.0169 7.448 65.0169 5.784C65.0169 4.12 65.5049 2.864 66.4809 2.016C67.4729 1.152 68.8569 0.719999 70.6329 0.719999H84.1209V3.84L71.0409 3.816C70.3529 3.816 69.8169 3.976 69.4329 4.296C69.0489 4.6 68.8569 5.096 68.8569 5.784C68.8569 6.472 69.0489 6.976 69.4329 7.296C69.8169 7.6 70.3529 7.752 71.0409 7.752H79.6329C81.4089 7.752 82.7849 8.192 83.7609 9.072C84.7529 9.936 85.2489 11.224 85.2489 12.936C85.2489 14.632 84.7529 15.92 83.7609 16.8C82.7849 17.68 81.4089 18.12 79.6329 18.12H65.4249ZM87.6566 18V0.839999H91.4966V7.872H103.593V0.839999H107.433V18H103.593V10.992H91.4966V18H87.6566ZM118.22 18V12.912C118.22 11.312 118.668 10.072 119.564 9.192C120.46 8.312 121.764 7.872 123.476 7.872H131.372C132.892 7.872 133.652 7.224 133.652 5.928C133.652 4.632 132.892 3.984 131.372 3.984H118.604V0.863999H132.116C133.78 0.863999 135.068 1.312 135.98 2.208C136.908 3.104 137.372 4.344 137.372 5.928C137.372 7.512 136.908 8.752 135.98 9.648C135.068 10.544 133.78 10.992 132.116 10.992H124.004C123.316 10.992 122.796 11.168 122.444 11.52C122.108 11.856 121.94 12.336 121.94 12.96V14.904H136.916V18H118.22ZM148.172 18V0.839999H151.004L158.684 0.816C161.788 0.816 164.196 1.544 165.908 3C167.62 4.456 168.476 6.592 168.476 9.408C168.476 12.224 167.62 14.36 165.908 15.816C164.196 17.272 161.788 18 158.684 18H148.172ZM158.42 3.936H152.012V14.88H158.42C160.436 14.88 161.964 14.44 163.004 13.56C164.044 12.68 164.564 11.296 164.564 9.408C164.564 7.504 164.044 6.12 163.004 5.256C161.964 4.376 160.436 3.936 158.42 3.936ZM180.016 18.12C176.96 18.12 174.592 17.392 172.912 15.936C171.232 14.464 170.392 12.288 170.392 9.408C170.392 6.544 171.232 4.384 172.912 2.928C174.592 1.456 177.016 0.719999 180.184 0.719999H184.504C187.672 0.719999 190.096 1.456 191.776 2.928C193.456 4.384 194.296 6.544 194.296 9.408C194.296 12.288 193.456 14.464 191.776 15.936C190.096 17.392 187.712 18.12 184.624 18.12H180.016ZM180.448 3.84C178.672 3.84 177.288 4.16 176.296 4.8C175.304 5.44 174.68 6.456 174.424 7.848H190.264C190.008 6.456 189.384 5.44 188.392 4.8C187.4 4.16 186.016 3.84 184.24 3.84H180.448ZM180.52 15H184.24C186.032 15 187.416 14.68 188.392 14.04C189.384 13.4 190.008 12.376 190.264 10.968H174.424C174.68 12.376 175.304 13.4 176.296 14.04C177.288 14.68 178.696 15 180.52 15ZM205.821 18.12C202.765 18.12 200.397 17.392 198.717 15.936C197.037 14.464 196.197 12.288 196.197 9.408C196.197 6.544 197.037 4.384 198.717 2.928C200.397 1.456 202.821 0.719999 205.989 0.719999H210.309C213.477 0.719999 215.901 1.456 217.581 2.928C219.261 4.384 220.101 6.544 220.101 9.408C220.101 12.288 219.261 14.464 217.581 15.936C215.901 17.392 213.517 18.12 210.429 18.12H205.821ZM206.253 3.84C204.477 3.84 203.093 4.16 202.101 4.8C201.109 5.44 200.485 6.456 200.229 7.848H216.069C215.813 6.456 215.189 5.44 214.197 4.8C213.205 4.16 211.821 3.84 210.045 3.84H206.253ZM206.325 15H210.045C211.837 15 213.221 14.68 214.197 14.04C215.189 13.4 215.813 12.376 216.069 10.968H200.229C200.485 12.376 201.109 13.4 202.101 14.04C203.093 14.68 204.501 15 206.325 15ZM222.493 18V0.839999H236.869C238.645 0.839999 240.021 1.288 240.997 2.184C241.989 3.08 242.485 4.44 242.485 6.264C242.485 7.816 242.125 9.032 241.405 9.912C240.685 10.792 239.661 11.344 238.333 11.568L242.293 18H237.925L234.253 11.688H226.333V18H222.493ZM236.413 3.96H226.333V8.544L236.413 8.568C237.117 8.568 237.653 8.392 238.021 8.04C238.405 7.688 238.597 7.096 238.597 6.264C238.597 5.416 238.405 4.824 238.021 4.488C237.653 4.136 237.117 3.96 236.413 3.96Z" fill="black"/>
</svg>
